<?xml version="1.0" encoding="UTF-8"?>
<svg id="Capa_1" xmlns="http://www.w3.org/2000/svg" viewBox="0 0 1895.74 1895.74">
  <defs>
    <style>
      .cls-1 {
        fill: #fff;
      }

      .cls-2 {
        fill: #b089be;
      }

      .cls-3 {
        fill: #9964a6;
      }

      .cls-4 {
        fill: #6e2885;
      }

      .cls-5 {
        fill: #ec79ad;
      }

      .cls-6 {
        fill: #c19fcb;
      }
    </style>
  </defs>
  <path class="cls-4" d="M1821.24,578.91c-47.74-112.87-116.09-214.24-203.13-301.28-74.46-74.46-159.43-135.18-253.09-181.08l-1.22-.6c-4.61-2.25-9.25-4.46-13.91-6.64-1.79-.84-3.59-1.68-5.39-2.51-4.16-1.92-8.33-3.81-12.52-5.67-2.21-.98-4.43-1.94-6.65-2.91-2.84-1.24-5.66-2.51-8.52-3.72-1.24-.52-2.49-1-3.73-1.52-2.21-.92-4.43-1.81-6.64-2.71-9.85-4.03-19.74-7.92-29.69-11.6l-.25-.1c-5.04-1.86-10.09-3.65-15.15-5.43-.94-.33-1.88-.68-2.82-1.01l-1.29-.43c-5.3-1.83-10.61-3.61-15.93-5.34-1.07-.35-2.14-.69-3.21-1.04-5.69-1.83-11.39-3.62-17.11-5.34l-.23-.07c-25.14-7.56-50.57-14.05-76.23-19.47h-.06c-6.1-1.3-12.22-2.52-18.35-3.69-.68-.13-1.36-.26-2.04-.38-5.95-1.12-11.9-2.19-17.88-3.19-.58-.1-1.17-.19-1.75-.28-17.98-2.98-36.06-5.46-54.24-7.4-1.23-.13-2.45-.28-3.68-.41-4.33-.45-8.67-.83-13.02-1.22-3.07-.28-6.15-.55-9.22-.8-3.77-.3-7.55-.57-11.33-.82-3.79-.26-7.59-.49-11.39-.7-3.32-.18-6.63-.37-9.96-.51-4.6-.21-9.2-.37-13.81-.51-2.65-.08-5.29-.19-7.94-.25-7.33-.17-14.67-.27-22.03-.27h0c-7.31,0-14.6.11-21.89.27-2.28.05-4.56.13-6.84.2-5.1.15-10.19.33-15.27.56-2.52.11-5.03.24-7.55.37-5.17.28-10.33.6-15.49.96-2.13.15-4.27.28-6.4.44-14.74,1.12-29.41,2.58-44.01,4.38-1.35.17-2.69.35-4.04.52-6.26.8-12.51,1.65-18.74,2.57-1.23.18-2.46.36-3.69.55-114.71,17.38-224.5,55.55-325.33,113.25-4.22,2.4-8.39,4.88-12.57,7.35-1.19.71-2.4,1.4-3.59,2.12-67.02,39.99-128.9,88.15-184.83,144.09-87.04,87.04-155.38,188.41-203.12,301.28C25.07,695.79,0,819.92,0,947.87s25.07,252.08,74.5,368.96c47.74,112.87,116.08,214.24,203.12,301.28,79.52,79.52,171.03,143.38,272.32,190.24,1.38.64,2.76,1.3,4.14,1.93,4.25,1.94,8.53,3.83,12.81,5.71,2.23.98,4.47,1.97,6.71,2.93,1.77.76,3.52,1.56,5.29,2.31,2.3.97,4.63,1.88,6.94,2.83,2.5,1.03,5.01,2.06,7.52,3.07,4.29,1.73,8.58,3.44,12.88,5.1,1.88.73,3.76,1.43,5.64,2.14,30.14,11.44,60.72,21.29,91.7,29.55.52.14,1.03.28,1.55.42,6.06,1.6,12.13,3.14,18.22,4.62.71.17,1.41.34,2.12.51,6.11,1.47,12.22,2.88,18.35,4.23.46.1.92.2,1.38.3,25.67,5.59,51.58,10.12,77.71,13.55.74.1,1.48.21,2.21.3,4.97.64,9.95,1.21,14.93,1.77,2.45.28,4.9.56,7.36.82,4.33.45,8.67.87,13.01,1.26,3.2.29,6.4.57,9.61.83,3.89.31,7.78.61,11.68.88,3.8.26,7.6.49,11.41.7,3.44.19,6.88.4,10.33.55,4.6.21,9.21.36,13.83.51,2.75.09,5.5.2,8.26.26,7.36.17,14.73.27,22.12.27h.2s.15,0,.15,0c7.3,0,14.58-.1,21.85-.27,2.28-.05,4.55-.14,6.82-.2,5.16-.15,10.32-.34,15.47-.57,2.46-.11,4.91-.24,7.37-.37,5.28-.28,10.55-.61,15.81-.98,2.03-.14,4.07-.27,6.1-.43,22.94-1.74,45.72-4.32,68.3-7.69l.62-.09c108.54-16.25,212.6-51.13,308.88-103.52l.08-.05c5.5-2.99,10.98-6.05,16.43-9.16,1.71-.97,3.43-1.93,5.14-2.92,2.75-1.59,5.49-3.23,8.23-4.85,68.62-40.46,131.91-89.45,188.99-146.54,87.04-87.04,155.39-188.41,203.13-301.28,49.43-116.87,74.5-241.01,74.5-368.96s-25.07-252.09-74.5-368.96ZM1048.84,947.87c0,55.67-45.31,100.97-101.01,100.97s-100.97-45.29-100.97-100.97,45.29-100.97,100.97-100.97,101.01,45.29,101.01,100.97Z"/>
  <path class="cls-2" d="M876.35,630.34c23.02-5.18,46.93-8.01,71.49-8.01,72.15,0,138.86,23.62,192.88,63.49l368.81-467.68c-4.62-3.56-9.28-7.07-13.97-10.55-1.55-1.15-3.12-2.27-4.68-3.41-3.15-2.3-6.29-4.6-9.47-6.86-1.91-1.36-3.84-2.7-5.76-4.05-2.86-2-5.71-4-8.59-5.97-2.08-1.42-4.17-2.82-6.25-4.23-2.76-1.85-5.52-3.7-8.31-5.52-2.18-1.43-4.37-2.86-6.57-4.27-2.71-1.75-5.43-3.47-8.16-5.19-2.28-1.43-4.56-2.86-6.85-4.28-2.67-1.65-5.35-3.27-8.04-4.9-2.36-1.43-4.72-2.85-7.1-4.26-2.65-1.56-5.31-3.1-7.97-4.64-2.44-1.41-4.86-2.83-7.31-4.21-2.61-1.47-5.24-2.91-7.86-4.36-2.53-1.4-5.04-2.81-7.58-4.19-1.44-.78-2.91-1.53-4.35-2.3-6.56-3.5-13.17-6.92-19.82-10.26-2-1.01-3.99-2.03-6-3.02-3.2-1.58-6.43-3.12-9.65-4.67-2.01-.96-4.01-1.94-6.03-2.89-3.27-1.54-6.56-3.04-9.85-4.55-1.98-.9-3.95-1.81-5.94-2.69-3.39-1.51-6.78-3-10.19-4.48-1.87-.81-3.75-1.62-5.63-2.42-3.53-1.5-7.08-2.98-10.64-4.44-1.72-.7-3.44-1.4-5.16-2.09-3.75-1.51-7.51-3.01-11.28-4.47-1.4-.54-2.8-1.07-4.21-1.61-4.12-1.57-8.24-3.13-12.38-4.65-.66-.24-1.33-.48-2-.72-25.43-9.23-51.39-17.37-77.81-24.37l-1.32-.35c-4.94-1.3-9.89-2.55-14.86-3.77-.67-.17-1.35-.33-2.02-.5-4.93-1.2-9.88-2.36-14.84-3.47-.63-.14-1.26-.28-1.88-.42-5.09-1.14-10.2-2.24-15.33-3.29l-1.02-.21c-38.82-7.92-78.53-13.4-118.96-16.27h-.03c-21.81-1.55-43.81-2.38-66.02-2.38-205.16,0-394.63,67.13-547.71,180.58l356.52,477.06c35.24-25.67,75.8-44.42,119.7-54.3Z"/>
  <path class="cls-2" d="M1114.55,1227.36c-48.8,29.21-105.81,46.05-166.7,46.05-79.9,0-153.12-28.99-209.82-76.93l-368.83,467.7c45.74,37,95.13,69.67,147.49,97.47v.02s.67.35.67.35c7.66,4.06,15.38,8.02,23.16,11.86l.78.39c15.93,7.85,32.12,15.25,48.55,22.2.67.28,1.34.57,2.02.85,16.25,6.82,32.72,13.19,49.43,19.09.83.29,1.67.58,2.51.87,7.87,2.75,15.78,5.41,23.75,7.96.48.15.95.31,1.43.47,8.48,2.69,17.02,5.27,25.61,7.72.64.18,1.28.35,1.93.53,7.69,2.18,15.42,4.25,23.18,6.23,1.35.35,2.7.7,4.06,1.04,16.67,4.17,33.52,7.88,50.54,11.13,1.8.34,3.61.68,5.42,1.01,7.71,1.42,15.45,2.77,23.23,4,.77.12,1.53.26,2.29.38,8.46,1.32,16.96,2.5,25.49,3.58,1.91.24,3.83.46,5.75.69,6.96.84,13.95,1.6,20.96,2.29,1.9.19,3.8.39,5.7.56,8.47.77,16.98,1.44,25.51,1.98,1.56.1,3.13.17,4.69.26,7.15.42,14.32.75,21.51,1,2.34.08,4.67.17,7.01.23,8.64.24,17.29.4,25.99.4,208.35,0,400.51-69.22,554.81-185.88l-356.52-477.07c-10.09,7.77-20.62,14.99-31.59,21.55Z"/>
  <path class="cls-3" d="M348.44,1646.91l369.61-468.69c-59.1-58.97-95.72-140.46-95.72-230.34,0-98.41,43.95-186.69,113.18-246.44L378.67,223.94C164.51,392.55,26.99,654.15,26.99,947.87s124.68,530.15,321.45,699.04Z"/>
  <path class="cls-3" d="M1530.69,234.91l-368.95,467.85c68.36,59.72,111.67,147.43,111.67,245.11s-41.11,181.04-106.51,240.62l357.05,477.77c210.2-168.78,344.8-427.85,344.8-718.39s-131.72-544.08-338.06-712.96Z"/>
  <path class="cls-6" d="M876.35,630.34c-40.13-79.08-56.92-222.42,45.68-241.97,70.18-10.8,151.16-10.8,172.75-64.78,48.82-108.9-12.07-202.13-80.92-294.22-21.81-1.55-43.81-2.38-66.02-2.38-205.16,0-394.63,67.13-547.71,180.58l356.52,477.06c35.24-25.67,75.8-44.42,119.7-54.3Z"/>
  <path class="cls-6" d="M1114.55,1227.36c-48.8,29.21-105.81,46.05-166.7,46.05-79.9,0-153.12-28.99-209.82-76.93l-368.83,467.7c45.74,37,95.13,69.67,147.49,97.47,15.44-41.38,35.56-81.33,59.56-119.82,0-3.1,1.56-6.18,4.63-7.45,15.11-23.62,31.69-46.67,49.64-69.12,26.99-32.39,70.18-97.17,102.57-75.58,70.18,59.38,134.96,156.56,232.14,129.57,59.38-21.59,113.37-75.58,129.57-140.36,18.4-87.4,24.52-170.85,19.76-251.52Z"/>
  <path class="cls-5" d="M947.85,649.32c-164.85,0-298.52,133.67-298.52,298.55s133.67,298.55,298.52,298.55,298.57-133.67,298.57-298.55-133.7-298.55-298.57-298.55ZM947.84,1075.83c-70.7,0-127.96-57.27-127.96-127.96s57.26-127.96,127.96-127.96,128,57.26,128,127.96-57.3,127.96-128,127.96Z"/>
  <path class="cls-4" d="M1489.12,1245.7c-12.1-6.07-26.83-1.18-32.9,10.91-6.07,12.1-1.18,26.82,10.91,32.89,12.1,6.07,26.82,1.18,32.89-10.91,6.07-12.1,1.18-26.82-10.91-32.89Z"/>
  <path class="cls-4" d="M1488.19,575.2c-11.93-13.97-33.98.55-26.11,16.97,24.08,49.46,43.98,99.72,57.89,151.39,28.17,103.06,32.72,211.12,14.19,316.3-9.25,52.67-24.47,104.43-43.81,155.9-2.56,6.57-.4,14.29,5.64,18.51,7.1,4.97,16.89,3.24,21.86-3.86,133.46-192.53,120.24-475.41-29.65-655.22Z"/>
  <path class="cls-4" d="M416.49,630.15c12.1,6.07,26.83,1.18,32.9-10.91,6.07-12.1,1.18-26.82-10.91-32.89-12.1-6.07-26.83-1.18-32.89,10.91-6.07,12.1-1.18,26.83,10.91,32.89Z"/>
  <path class="cls-4" d="M417.42,1300.65c11.92,13.97,33.98-.55,26.11-16.97-24.08-49.46-43.98-99.72-57.89-151.39-28.17-103.06-32.72-211.12-14.19-316.3,9.25-52.67,24.47-104.43,43.81-155.9,2.56-6.57.4-14.29-5.64-18.51-7.1-4.97-16.88-3.24-21.86,3.86-133.46,192.53-120.24,475.41,29.65,655.22Z"/>
  <path class="cls-1" d="M1647.64,1336.66c-15.67-7.86-34.75-1.53-42.62,14.14-7.86,15.67-1.53,34.75,14.14,42.62,15.67,7.86,34.75,1.53,42.62-14.14,7.86-15.67,1.54-34.75-14.14-42.62Z"/>
  <path class="cls-1" d="M1642.58,470.52c-11.97-14.72-34.66.58-26.06,17.08,65.98,125.04,106.96,261.13,112.51,401.93,6.74,140.81-21.4,279.89-75.75,410.52-2.86,6.79-.56,14.89,5.82,19.09,7.21,4.76,16.92,2.77,21.68-4.44,165.12-251.18,148.51-608.83-38.2-844.18Z"/>
  <path class="cls-1" d="M257.98,539.19c15.67,7.86,34.75,1.53,42.62-14.14,7.86-15.67,1.53-34.75-14.14-42.62-15.67-7.86-34.75-1.53-42.62,14.14-7.86,15.67-1.53,34.75,14.14,42.62Z"/>
  <path class="cls-1" d="M263.04,1405.33c11.97,14.72,34.66-.58,26.06-17.08-65.98-125.04-106.97-261.13-112.51-401.93-6.74-140.81,21.4-279.88,75.75-410.52,2.86-6.79.56-14.88-5.82-19.09-7.21-4.76-16.92-2.77-21.68,4.44-165.12,251.18-148.51,608.83,38.2,844.18Z"/>
  <path class="cls-1" d="M568.67,256c-10.42,0-10.44,16.2,0,16.2s10.44-16.2,0-16.2Z"/>
  <path class="cls-1" d="M822.67,550.67c10.42,0,10.44-16.2,0-16.2s-10.44,16.2,0,16.2Z"/>
  <path class="cls-1" d="M897.07,107.99c10.42,0,10.44-16.2,0-16.2s-10.44,16.2,0,16.2Z"/>
  <path class="cls-1" d="M967.63,313.25c10.42,0,10.44-16.2,0-16.2s-10.44,16.2,0,16.2Z"/>
  <path class="cls-1" d="M1307.58,231.14c10.42,0,10.44-16.2,0-16.2s-10.44,16.2,0,16.2Z"/>
  <path class="cls-1" d="M1104.25,549.77c-10.42,0-10.44,16.2,0,16.2s10.44-16.2,0-16.2Z"/>
  <path class="cls-1" d="M822.67,1342.07c10.42,0,10.44-16.2,0-16.2s-10.44,16.2,0,16.2Z"/>
  <path class="cls-1" d="M1197.25,1451.59c-10.42,0-10.44,16.2,0,16.2s10.44-16.2,0-16.2Z"/>
  <path class="cls-1" d="M958.65,1791.06c10.42,0,10.44-16.2,0-16.2s-10.44,16.2,0,16.2Z"/>
  <path class="cls-1" d="M976.61,1534.49c10.42,0,10.44-16.2,0-16.2s-10.44,16.2,0,16.2Z"/>
  <path class="cls-1" d="M576.24,1641.83c-.01,4.06,2.59,8.12,7.82,8.12,10.42,0,10.44-16.2,0-16.2-1.21,0-2.26.24-3.19.62-3.07,1.27-4.62,4.35-4.63,7.45Z"/>
  <path class="cls-1" d="M1238.3,1690.2c-10.42,0-10.44,16.2,0,16.2s10.44-16.2,0-16.2Z"/>
</svg>